Moderustic-Regular.ufo
<glyph name="E" format="2">
  <advance width="530"/>
  <unicode hex="0045"/>
  <anchor x="265" y="719" name="top"/>
  <anchor x="260" y="-20" name="bottom"/>
  <anchor x="472" y="-2" name="ogonek"/>
  <anchor x="-28" y="500" name="topgr"/>
  <outline>
    <contour>
      <point x="74" y="0" type="line"/>
      <point x="475" y="0" type="line" name="ab01"/>
      <point x="475" y="80" type="line" name="sv01"/>
      <point x="164" y="80" type="line"/>
      <point x="164" y="325" type="line" name="dv01"/>
      <point x="435" y="325" type="line"/>
      <point x="435" y="405" type="line"/>
      <point x="164" y="405" type="line" name="dv02"/>
      <point x="164" y="620" type="line" name="sv02"/>
      <point x="461" y="620" type="line"/>
      <point x="461" y="700" type="line" name="at01"/>
      <point x="74" y="700" type="line"/>
    </contour>
  </outline>
</glyph>
<glyph name="I" format="2">
  <advance width="326"/>
  <unicode hex="0049"/>
  <anchor x="163" y="719" name="top"/>
  <anchor x="163" y="-20" name="bottom"/>
  <anchor x="205" y="-3" name="ogonek"/>
  <anchor x="1" y="500" name="topgr"/>
  <outline>
    <contour>
      <point x="118" y="0" type="line"/>
      <point x="208" y="0" type="line"/>
      <point x="208" y="700" type="line"/>
      <point x="118" y="700" type="line"/>
    </contour>
  </outline>
</glyph>
<glyph name="Y" format="2">
  <advance width="662"/>
  <unicode hex="0059"/>
  <anchor x="331" y="719" name="top"/>
  <anchor x="331" y="-20" name="bottom"/>
  <anchor x="-60" y="500" name="topgr"/>
  <outline>
    <contour>
      <point x="281" y="0" type="line" name="ab01"/>
      <point x="381" y="0" type="line"/>
      <point x="381" y="296" type="line" name="iv04"/>
      <point x="624" y="700" type="line" name="at01"/>
      <point x="507" y="700" type="line"/>
      <point x="331" y="395" type="line" name="iv05"/>
      <point x="155" y="700" type="line" name="at02"/>
      <point x="38" y="700" type="line"/>
      <point x="281" y="296" type="line" name="iv01"/>
    </contour>
  </outline>
</glyph>
<glyph name="asciicircum" format="2">
  <advance width="515"/>
  <unicode hex="005E"/>
  <outline>
    <contour>
      <point x="50" y="520" type="line"/>
      <point x="98" y="520" type="line"/>
      <point x="257" y="739" type="line"/>
      <point x="417" y="519" type="line"/>
      <point x="465" y="519" type="line"/>
      <point x="303" y="779" type="line"/>
      <point x="211" y="779" type="line"/>
    </contour>
  </outline>
</glyph>
<glyph name="v" format="2">
  <advance width="530"/>
  <unicode hex="0076"/>
  <anchor x="265" y="520" name="top"/>
  <anchor x="265" y="-20" name="bottom"/>
  <outline>
    <contour>
      <point x="217" y="0" type="line"/>
      <point x="313" y="0" type="line"/>
      <point x="505" y="500" type="line"/>
      <point x="406" y="500" type="line"/>
      <point x="265" y="92" type="line"/>
      <point x="124" y="500" type="line"/>
      <point x="25" y="500" type="line"/>
    </contour>
  </outline>
</glyph>
<glyph name="Eth" format="2">
  <advance width="732"/>
  <unicode hex="00D0"/>
  <outline>
    <contour>
      <point x="174" y="80" type="line" name="sv01"/>
      <point x="174" y="620" type="line" name="sv02"/>
      <point x="334.439" y="620" type="line" smooth="yes"/>
      <point x="490.916" y="620"/>
      <point x="585" y="518"/>
      <point x="585" y="349" type="curve" smooth="yes"/>
      <point x="585" y="181"/>
      <point x="490.916" y="80"/>
      <point x="334.439" y="80" type="curve" smooth="yes"/>
    </contour>
    <contour>
      <point x="84" y="0" type="line" name="ab01"/>
      <point x="343" y="0" type="line" smooth="yes"/>
      <point x="543" y="0"/>
      <point x="679" y="142"/>
      <point x="679" y="350" type="curve" smooth="yes"/>
      <point x="679" y="557"/>
      <point x="542" y="700"/>
      <point x="343" y="700" type="curve" smooth="yes" name="at01"/>
      <point x="84" y="700" type="line"/>
    </contour>
    <contour>
      <point x="-0.28" y="336" type="line"/>
      <point x="398.082" y="336" type="line"/>
      <point x="398.082" y="370" type="line"/>
      <point x="-0.28" y="370" type="line"/>
    </contour>
  </outline>
</glyph>
<glyph name="hbar" format="2">
  <advance width="641"/>
  <unicode hex="0127"/>
  <outline>
    <contour>
      <point x="100" y="0" type="line" name="ab03"/>
      <point x="190" y="0" type="line"/>
      <point x="190" y="750" type="line" name="ab01"/>
      <point x="100" y="750" type="line"/>
    </contour>
    <contour>
      <point x="190" y="197" type="line" name="iv01"/>
      <point x="190" y="337.203"/>
      <point x="246" y="430"/>
      <point x="356" y="430" type="curve" smooth="yes" name="sv01"/>
      <point x="431" y="430"/>
      <point x="457" y="387.813"/>
      <point x="457" y="274.308" type="curve" smooth="yes"/>
      <point x="457" y="0" type="line" name="ab01"/>
      <point x="547" y="0" type="line"/>
      <point x="547" y="284" type="line" smooth="yes"/>
      <point x="547" y="428"/>
      <point x="492" y="500"/>
      <point x="378" y="500" type="curve" smooth="yes" name="at01"/>
      <point x="281" y="500"/>
      <point x="205" y="431"/>
      <point x="182" y="322" type="curve"/>
      <point x="183" y="254" type="line"/>
    </contour>
    <contour>
      <point x="20" y="631" type="line"/>
      <point x="413.12" y="631" type="line"/>
      <point x="413.12" y="667" type="line"/>
      <point x="20" y="667" type="line"/>
    </contour>
  </outline>
</glyph>
<glyph name="breve" format="2">
  <advance width="336"/>
  <unicode hex="02D8"/>
  <outline>
    <contour>
      <point x="45" y="701" type="line"/>
      <point x="52" y="608.891"/>
      <point x="98" y="552"/>
      <point x="169" y="552" type="curve" smooth="yes"/>
      <point x="239" y="552"/>
      <point x="286" y="607.536"/>
      <point x="294" y="701" type="curve"/>
      <point x="233" y="701" type="line"/>
      <point x="229" y="643.321"/>
      <point x="205" y="606"/>
      <point x="168" y="606" type="curve" smooth="yes"/>
      <point x="132" y="606"/>
      <point x="110" y="639.929"/>
      <point x="106" y="701" type="curve"/>
    </contour>
  </outline>
</glyph>
<glyph name="hungarumlaut" format="2">
  <advance width="389"/>
  <unicode hex="02DD"/>
  <outline>
    <contour>
      <point x="205" y="551" type="line"/>
      <point x="256" y="551" type="line"/>
      <point x="356" y="700" type="line"/>
      <point x="265" y="700" type="line"/>
    </contour>
    <contour>
      <point x="35" y="551" type="line"/>
      <point x="86" y="551" type="line"/>
      <point x="186" y="700" type="line"/>
      <point x="95" y="700" type="line"/>
    </contour>
  </outline>
</glyph>
<glyph name="ringcomb" format="2">
  <advance width="270"/>
  <unicode hex="030A"/>
  <anchor x="135" y="723" name="top"/>
  <anchor x="135" y="500" name="_top"/>
  <outline>
    <contour>
      <point x="32" y="626.5" type="curve" smooth="yes"/>
      <point x="32" y="567.876"/>
      <point x="70" y="531"/>
      <point x="135" y="531" type="curve" smooth="yes"/>
      <point x="200" y="531"/>
      <point x="238" y="567.876"/>
      <point x="238" y="626.5" type="curve" smooth="yes"/>
      <point x="238" y="684.178"/>
      <point x="200" y="722"/>
      <point x="135" y="722" type="curve" smooth="yes"/>
      <point x="70" y="722"/>
      <point x="32" y="684.178"/>
    </contour>
    <contour>
      <point x="77" y="626.5" type="curve" smooth="yes"/>
      <point x="77" y="660.108"/>
      <point x="101" y="681"/>
      <point x="135" y="681" type="curve" smooth="yes"/>
      <point x="169" y="681"/>
      <point x="193" y="660.108"/>
      <point x="193" y="626.5" type="curve" smooth="yes"/>
      <point x="193" y="592.892"/>
      <point x="169" y="572"/>
      <point x="135" y="572" type="curve" smooth="yes"/>
      <point x="101" y="572"/>
      <point x="77" y="591.983"/>
    </contour>
  </outline>
</glyph>
<glyph name="caroncomb" format="2">
  <advance width="346"/>
  <unicode hex="030C"/>
  <anchor x="173" y="702" name="top"/>
  <anchor x="173" y="500" name="_top"/>
  <outline>
    <contour>
      <point x="134" y="550" type="line"/>
      <point x="212" y="550" type="line"/>
      <point x="314" y="701" type="line"/>
      <point x="241" y="701" type="line"/>
      <point x="173" y="588" type="line"/>
      <point x="105" y="701" type="line"/>
      <point x="32" y="701" type="line"/>
    </contour>
  </outline>
</glyph>
<glyph name="alpha" format="2">
  <advance width="631"/>
  <unicode hex="03B1"/>
  <anchor x="296" y="520" name="topgr"/>
  <outline>
    <contour>
      <point x="566" y="0" type="line"/>
      <point x="566" y="120.932"/>
      <point x="548.976" y="227.494"/>
      <point x="516.533" y="312.158" type="curve" smooth="yes"/>
      <point x="466.883" y="441.723"/>
      <point x="381.121" y="520"/>
      <point x="265" y="520" type="curve" smooth="yes"/>
      <point x="136" y="520"/>
      <point x="46" y="423"/>
      <point x="46" y="255" type="curve" smooth="yes"/>
      <point x="46" y="90"/>
      <point x="132" y="-20"/>
      <point x="255" y="-20" type="curve" smooth="yes"/>
      <point x="378.519" y="-20"/>
      <point x="478.288" y="89.907"/>
      <point x="529.198" y="249.972" type="curve" smooth="yes"/>
      <point x="552.889" y="324.46"/>
      <point x="566" y="409.809"/>
      <point x="566" y="500" type="curve"/>
      <point x="476" y="500" type="line"/>
      <point x="477.755" y="442.793"/>
      <point x="476.553" y="370.312"/>
      <point x="466.646" y="300.325" type="curve" smooth="yes"/>
      <point x="448.325" y="170.898"/>
      <point x="400.23" y="50"/>
      <point x="286" y="50" type="curve" smooth="yes"/>
      <point x="194" y="50"/>
      <point x="136" y="128"/>
      <point x="136" y="254" type="curve" smooth="yes"/>
      <point x="136" y="375"/>
      <point x="190" y="450"/>
      <point x="283" y="450" type="curve" smooth="yes"/>
      <point x="365.747" y="450"/>
      <point x="412.869" y="391.022"/>
      <point x="439.863" y="312.158" type="curve" smooth="yes"/>
      <point x="473.547" y="213.75"/>
      <point x="475.89" y="84.379"/>
      <point x="477" y="0" type="curve"/>
    </contour>
  </outline>
</glyph>
<glyph name="gamma" format="2">
  <advance width="543"/>
  <unicode hex="03B3"/>
  <anchor x="272" y="520" name="topgr"/>
  <outline>
    <contour>
      <point x="226" y="-200" type="line"/>
      <point x="316" y="-200" type="line"/>
      <point x="316" y="60" type="line"/>
      <point x="313" y="-13" type="line"/>
      <point x="508" y="500" type="line"/>
      <point x="411" y="500" type="line"/>
      <point x="267" y="81" type="line"/>
      <point x="275" y="84" type="line"/>
      <point x="132" y="500" type="line"/>
      <point x="35" y="500" type="line"/>
      <point x="230" y="-13" type="line"/>
      <point x="226" y="60" type="line"/>
    </contour>
  </outline>
</glyph>
<glyph name="sigmafinal" format="2">
  <advance width="572"/>
  <unicode hex="03C2"/>
  <anchor x="286" y="520" name="topgr"/>
  <outline>
    <contour>
      <point x="490.727" y="-200" type="line"/>
      <point x="506.439" y="-183.068"/>
      <point x="524" y="-147.211"/>
      <point x="524" y="-102.39" type="curve" smooth="yes"/>
      <point x="524" y="-13.745"/>
      <point x="448" y="50"/>
      <point x="324" y="50" type="curve" smooth="yes"/>
      <point x="191" y="50"/>
      <point x="140" y="128.372"/>
      <point x="140" y="244.955" type="curve" smooth="yes"/>
      <point x="140" y="381.638"/>
      <point x="209" y="450"/>
      <point x="302" y="450" type="curve" smooth="yes" name="sv01"/>
      <point x="360" y="450"/>
      <point x="412" y="421.611"/>
      <point x="448" y="377" type="curve"/>
      <point x="501" y="430" type="line"/>
      <point x="460" y="483"/>
      <point x="388" y="520"/>
      <point x="295" y="520" type="curve" smooth="yes" name="at01"/>
      <point x="140" y="520"/>
      <point x="50" y="418"/>
      <point x="50" y="247" type="curve" smooth="yes"/>
      <point x="50" y="86"/>
      <point x="131.057" y="-20"/>
      <point x="302.406" y="-20" type="curve" smooth="yes"/>
      <point x="397.828" y="-20"/>
      <point x="444" y="-53"/>
      <point x="444" y="-109" type="curve" smooth="yes"/>
      <point x="444" y="-143"/>
      <point x="427" y="-166"/>
      <point x="402" y="-200" type="curve"/>
    </contour>
  </outline>
</glyph>
<glyph name="Pecyr" format="2">
  <advance width="680"/>
  <unicode hex="041F"/>
  <anchor x="340" y="-20" name="bottom"/>
  <anchor x="340" y="719" name="top"/>
  <outline>
    <contour>
      <point x="87" y="0" type="line"/>
      <point x="177" y="0" type="line"/>
      <point x="177" y="620" type="line"/>
      <point x="503" y="620" type="line"/>
      <point x="503" y="0" type="line"/>
      <point x="593" y="0" type="line"/>
      <point x="593" y="700" type="line"/>
      <point x="87" y="700" type="line"/>
    </contour>
  </outline>
</glyph>
<glyph name="Softcyr" format="2">
  <advance width="613"/>
  <unicode hex="042C"/>
  <outline>
    <contour>
      <point x="87" y="0" type="line"/>
      <point x="333" y="0" type="line" smooth="yes"/>
      <point x="474" y="0"/>
      <point x="564" y="86.962"/>
      <point x="564" y="221.072" type="curve" smooth="yes"/>
      <point x="564" y="357.277"/>
      <point x="471" y="439"/>
      <point x="330" y="439" type="curve" smooth="yes"/>
      <point x="177" y="439" type="line"/>
      <point x="177" y="700" type="line"/>
      <point x="87" y="700" type="line"/>
    </contour>
    <contour>
      <point x="177" y="80" type="line"/>
      <point x="177" y="359" type="line"/>
      <point x="330" y="359" type="line" smooth="yes"/>
      <point x="433" y="359"/>
      <point x="474" y="308.371"/>
      <point x="474" y="220.039" type="curve" smooth="yes"/>
      <point x="474" y="131.707"/>
      <point x="433" y="80"/>
      <point x="330" y="80" type="curve" smooth="yes"/>
    </contour>
  </outline>
</glyph>
<glyph name="decyr" format="2">
  <advance width="760"/>
  <unicode hex="0434"/>
  <anchor x="399" y="-20" name="bottom"/>
  <anchor x="400" y="520" name="top"/>
  <outline>
    <contour>
      <point x="120" y="-140" type="line"/>
      <point x="121" y="-107"/>
      <point x="107" y="0"/>
      <point x="166" y="0" type="curve" smooth="yes"/>
      <point x="586" y="0" type="line" smooth="yes"/>
      <point x="657" y="0"/>
      <point x="638" y="-102"/>
      <point x="638" y="-140" type="curve"/>
      <point x="715" y="-140" type="line"/>
      <point x="715" y="35"/>
      <point x="694" y="79"/>
      <point x="594" y="79" type="curve"/>
      <point x="594" y="500" type="line"/>
      <point x="215" y="500" type="line"/>
      <point x="215" y="315.571" type="line" smooth="yes"/>
      <point x="215" y="179.254"/>
      <point x="203" y="111.072"/>
      <point x="178" y="80" type="curve"/>
      <point x="78" y="80"/>
      <point x="44" y="39.147"/>
      <point x="44" y="-140" type="curve"/>
    </contour>
    <contour>
      <point x="212" y="80" type="line"/>
      <point x="281.183" y="103.386"/>
      <point x="305" y="175.581"/>
      <point x="305" y="420" type="curve"/>
      <point x="504" y="420" type="line"/>
      <point x="504" y="80" type="line"/>
    </contour>
  </outline>
</glyph>
<glyph name="icyr" format="2">
  <advance width="609"/>
  <unicode hex="0438"/>
  <anchor x="305" y="520" name="top"/>
  <anchor x="305" y="-20" name="bottom"/>
  <outline>
    <contour>
      <point x="80" y="0" type="line"/>
      <point x="167" y="0" type="line"/>
      <point x="439" y="374" type="line"/>
      <point x="439" y="0" type="line"/>
      <point x="529" y="0" type="line"/>
      <point x="529" y="500" type="line"/>
      <point x="441" y="500" type="line"/>
      <point x="170" y="127" type="line"/>
      <point x="170" y="500" type="line"/>
      <point x="80" y="500" type="line"/>
    </contour>
  </outline>
</glyph>
<glyph name="efcyr" format="2">
  <advance width="806"/>
  <unicode hex="0444"/>
  <outline>
    <contour>
      <point x="357" y="-200" type="line"/>
      <point x="447" y="-200" type="line"/>
      <point x="447" y="750" type="line"/>
      <point x="357" y="750" type="line"/>
    </contour>
    <contour>
      <point x="444" y="123" type="line"/>
      <point x="407.408" y="77"/>
      <point x="345.405" y="51"/>
      <point x="282.385" y="51" type="curve" smooth="yes" name="dv02"/>
      <point x="183.789" y="51"/>
      <point x="135" y="119"/>
      <point x="135" y="255" type="curve" smooth="yes"/>
      <point x="135" y="387"/>
      <point x="182.789" y="449"/>
      <point x="284.466" y="449" type="curve" smooth="yes" name="sv01"/>
      <point x="344.456" y="449"/>
      <point x="401.396" y="423"/>
      <point x="438" y="377" type="curve"/>
      <point x="438" y="478" type="line"/>
      <point x="397.485" y="504"/>
      <point x="344.814" y="520"/>
      <point x="282.015" y="520" type="curve" smooth="yes" name="at01"/>
      <point x="130.082" y="520"/>
      <point x="45" y="421"/>
      <point x="45" y="255" type="curve" smooth="yes"/>
      <point x="45" y="79"/>
      <point x="132.091" y="-20"/>
      <point x="282.982" y="-20" type="curve" smooth="yes" name="dv01"/>
      <point x="346.782" y="-20"/>
      <point x="401.467" y="-4"/>
      <point x="442.987" y="22" type="curve"/>
    </contour>
    <contour>
      <point x="362" y="22" type="line"/>
      <point x="403.52" y="-4"/>
      <point x="459.218" y="-20"/>
      <point x="523.018" y="-20" type="curve" smooth="yes" name="dv01"/>
      <point x="673.909" y="-20"/>
      <point x="761" y="79"/>
      <point x="761" y="255" type="curve" smooth="yes"/>
      <point x="761" y="421"/>
      <point x="675.918" y="520"/>
      <point x="523.985" y="520" type="curve" smooth="yes" name="at01"/>
      <point x="461.186" y="520"/>
      <point x="408.515" y="504"/>
      <point x="368" y="478" type="curve"/>
      <point x="368" y="377" type="line"/>
      <point x="404.604" y="423"/>
      <point x="461.544" y="449"/>
      <point x="521.534" y="449" type="curve" smooth="yes" name="sv01"/>
      <point x="623.211" y="449"/>
      <point x="671" y="387"/>
      <point x="671" y="255" type="curve" smooth="yes"/>
      <point x="671" y="119"/>
      <point x="622.211" y="51"/>
      <point x="523.615" y="51" type="curve" smooth="yes" name="dv02"/>
      <point x="460.595" y="51"/>
      <point x="398.592" y="77"/>
      <point x="362" y="123" type="curve"/>
    </contour>
  </outline>
</glyph>
<glyph name="tsecyr" format="2">
  <advance width="676"/>
  <unicode hex="0446"/>
  <outline>
    <contour>
      <point x="80" y="0" type="line"/>
      <point x="511" y="0" type="line" smooth="yes"/>
      <point x="578" y="0"/>
      <point x="564" y="-72"/>
      <point x="564" y="-140" type="curve"/>
      <point x="640" y="-140" type="line"/>
      <point x="640" y="35"/>
      <point x="619" y="78"/>
      <point x="519" y="78" type="curve"/>
      <point x="519" y="500" type="line"/>
      <point x="429" y="500" type="line"/>
      <point x="429" y="80" type="line"/>
      <point x="170" y="80" type="line"/>
      <point x="170" y="500" type="line"/>
      <point x="80" y="500" type="line"/>
    </contour>
  </outline>
</glyph>
<glyph name="yukrcyr" format="2">
  <advance width="272"/>
  <unicode hex="0457"/>
  <anchor x="136" y="-20" name="bottom"/>
  <anchor x="178" y="-3" name="ogonek"/>
  <anchor x="136" y="667" name="top"/>
  <outline>
    <contour>
      <point x="91" y="0" type="line" name="ab01"/>
      <point x="181" y="0" type="line"/>
      <point x="181" y="500" type="line"/>
      <point x="91" y="500" type="line" name="av01"/>
    </contour>
    <contour>
      <point x="-14.13" y="645" type="curve" smooth="yes"/>
      <point x="-14.13" y="622.88"/>
      <point x="3.381" y="597.996"/>
      <point x="34.717" y="597.996" type="curve" smooth="yes" name="dv01"/>
      <point x="66.053" y="597.996"/>
      <point x="82.643" y="621.959"/>
      <point x="82.643" y="645" type="curve" smooth="yes"/>
      <point x="82.643" y="668.963"/>
      <point x="66.053" y="692.004"/>
      <point x="34.717" y="692.004" type="curve" smooth="yes" name="dv02"/>
      <point x="3.381" y="692.004"/>
      <point x="-14.13" y="668.041"/>
    </contour>
    <contour>
      <point x="188.357" y="645" type="curve" smooth="yes"/>
      <point x="188.357" y="622.88"/>
      <point x="205.868" y="597.996"/>
      <point x="237.204" y="597.996" type="curve" smooth="yes" name="dv01.1"/>
      <point x="268.541" y="597.996"/>
      <point x="285.13" y="621.959"/>
      <point x="285.13" y="645" type="curve" smooth="yes"/>
      <point x="285.13" y="668.963"/>
      <point x="268.541" y="692.004"/>
      <point x="237.204" y="692.004" type="curve" smooth="yes" name="dv02.1"/>
      <point x="205.868" y="692.004"/>
      <point x="188.357" y="668.041"/>
    </contour>
  </outline>
</glyph>
<glyph name="four.superior" format="2">
  <advance width="460"/>
  <unicode hex="2074"/>
  <outline>
    <contour>
      <point x="28" y="452" type="line"/>
      <point x="268" y="452" type="line"/>
      <point x="268" y="344" type="line"/>
      <point x="343" y="344" type="line"/>
      <point x="343" y="452" type="line"/>
      <point x="431" y="452" type="line"/>
      <point x="431" y="517" type="line"/>
      <point x="343" y="517" type="line"/>
      <point x="343" y="830" type="line"/>
      <point x="243" y="830" type="line"/>
      <point x="28" y="486" type="line"/>
    </contour>
    <contour>
      <point x="130" y="517" type="line"/>
      <point x="268" y="738" type="line"/>
      <point x="268" y="517" type="line"/>
    </contour>
  </outline>
</glyph>
<glyph name="austral" format="2">
  <advance width="718"/>
  <unicode hex="20B3"/>
  <outline>
    <contour>
      <point x="13" y="148" type="line"/>
      <point x="705" y="148" type="line"/>
      <point x="705" y="191" type="line"/>
      <point x="13" y="191" type="line"/>
    </contour>
    <contour>
      <point x="13" y="287" type="line"/>
      <point x="705" y="287" type="line"/>
      <point x="705" y="330" type="line"/>
      <point x="13" y="330" type="line"/>
    </contour>
    <contour>
      <point x="373.5" y="700" type="line"/>
      <point x="290.5" y="700" type="line"/>
      <point x="63.5" y="0" type="line"/>
      <point x="159.5" y="0" type="line"/>
    </contour>
    <contour>
      <point x="427.5" y="700" type="line"/>
      <point x="344.5" y="700" type="line"/>
      <point x="558.5" y="0" type="line"/>
      <point x="654.5" y="0" type="line"/>
    </contour>
  </outline>
</glyph>
<glyph name="minus" format="2">
  <advance width="566"/>
  <unicode hex="2212"/>
  <outline>
    <contour>
      <point x="50" y="323" type="line"/>
      <point x="516" y="323" type="line"/>
      <point x="516" y="357" type="line"/>
      <point x="50" y="357" type="line"/>
    </contour>
  </outline>
</glyph>
<glyph name="C.ss09" format="2">
  <advance width="753"/>
  <anchor x="397" y="-19" name="bottom"/>
  <anchor x="377" y="719" name="top"/>
  <outline>
    <contour>
      <point x="610" y="261" type="line"/>
      <point x="594" y="140"/>
      <point x="503" y="60"/>
      <point x="387" y="60" type="curve" smooth="yes"/>
      <point x="243" y="60"/>
      <point x="143" y="181"/>
      <point x="143" y="354" type="curve" smooth="yes"/>
      <point x="143" y="524"/>
      <point x="239" y="640"/>
      <point x="380" y="640" type="curve" smooth="yes"/>
      <point x="479" y="640"/>
      <point x="567" y="584"/>
      <point x="600" y="485" type="curve"/>
      <point x="690" y="485" type="line"/>
      <point x="644" y="637"/>
      <point x="541" y="720"/>
      <point x="390" y="720" type="curve" smooth="yes"/>
      <point x="190" y="720"/>
      <point x="53" y="572"/>
      <point x="53" y="355" type="curve" smooth="yes"/>
      <point x="53" y="135"/>
      <point x="192" y="-20"/>
      <point x="390" y="-20" type="curve" smooth="yes"/>
      <point x="550" y="-20"/>
      <point x="667" y="79"/>
      <point x="700" y="261" type="curve"/>
    </contour>
  </outline>
</glyph>
<glyph name="C.ss10" format="2">
  <advance width="715"/>
  <anchor x="397" y="-19" name="bottom"/>
  <anchor x="377" y="719" name="top"/>
  <outline>
    <contour>
      <point x="626" y="201" type="line"/>
      <point x="567" y="105.321"/>
      <point x="491" y="60"/>
      <point x="402" y="60" type="curve" smooth="yes"/>
      <point x="246" y="60"/>
      <point x="143" y="184.429"/>
      <point x="143" y="353.01" type="curve" smooth="yes"/>
      <point x="143" y="520.588"/>
      <point x="235" y="640"/>
      <point x="391" y="640" type="curve" smooth="yes"/>
      <point x="480" y="640"/>
      <point x="560" y="593.671"/>
      <point x="617" y="499" type="curve"/>
      <point x="653" y="603" type="line"/>
      <point x="585" y="680"/>
      <point x="495" y="720"/>
      <point x="389" y="720" type="curve" smooth="yes"/>
      <point x="186" y="720"/>
      <point x="53" y="573"/>
      <point x="53" y="357" type="curve" smooth="yes"/>
      <point x="53" y="137"/>
      <point x="190" y="-20"/>
      <point x="396" y="-20" type="curve" smooth="yes"/>
      <point x="499" y="-20"/>
      <point x="592" y="19"/>
      <point x="662" y="97" type="curve"/>
    </contour>
  </outline>
</glyph>
<glyph name="Ccedilla.ss12" format="2">
  <advance width="649"/>
  <anchor x="347" y="719" name="top"/>
  <anchor x="347" y="-217" name="bottom"/>
  <outline>
    <contour>
      <point x="587.631" y="145.423" type="line"/>
      <point x="516.966" y="78.806"/>
      <point x="431.014" y="60"/>
      <point x="368" y="60" type="curve" smooth="yes"/>
      <point x="214" y="60"/>
      <point x="143" y="163.178"/>
      <point x="143" y="344.491" type="curve" smooth="yes"/>
      <point x="143" y="530.812"/>
      <point x="213.58" y="640"/>
      <point x="369.58" y="640" type="curve" smooth="yes"/>
      <point x="432.594" y="640"/>
      <point x="516.966" y="619.92"/>
      <point x="587.631" y="554.084" type="curve"/>
      <point x="595.651" y="628.555" type="line"/>
      <point x="547.531" y="683.549"/>
      <point x="454.946" y="720"/>
      <point x="365.58" y="720" type="curve" smooth="yes"/>
      <point x="165.58" y="720"/>
      <point x="53" y="572"/>
      <point x="53" y="348" type="curve" smooth="yes"/>
      <point x="53" y="123"/>
      <point x="166" y="-20"/>
      <point x="364" y="-20" type="curve" smooth="yes"/>
      <point x="453.365" y="-20"/>
      <point x="547.531" y="15.957"/>
      <point x="595.651" y="70.951" type="curve"/>
    </contour>
    <contour>
      <point x="251" y="-204" type="line"/>
      <point x="272" y="-210"/>
      <point x="296" y="-217"/>
      <point x="335" y="-217" type="curve" smooth="yes"/>
      <point x="415" y="-217"/>
      <point x="461" y="-188"/>
      <point x="461" y="-136" type="curve" smooth="yes"/>
      <point x="461" y="-89"/>
      <point x="424" y="-63"/>
      <point x="365" y="-63" type="curve"/>
      <point x="409.74" y="15.895" type="line"/>
      <point x="352.74" y="15.895" type="line"/>
      <point x="298" y="-85" type="line"/>
      <point x="313" y="-83"/>
      <point x="324" y="-81"/>
      <point x="337" y="-81" type="curve" smooth="yes"/>
      <point x="372" y="-81"/>
      <point x="393" y="-96"/>
      <point x="393" y="-131" type="curve" smooth="yes"/>
      <point x="393" y="-165"/>
      <point x="374" y="-181"/>
      <point x="332" y="-181" type="curve" smooth="yes"/>
      <point x="309" y="-181"/>
      <point x="287" y="-176"/>
      <point x="270" y="-170" type="curve"/>
    </contour>
  </outline>
</glyph>
<glyph name="G.ss10" format="2">
  <advance width="780"/>
  <anchor x="384" y="-19" name="bottom"/>
  <anchor x="384" y="719" name="top"/>
  <outline>
    <contour>
      <point x="353" y="272" type="line"/>
      <point x="609" y="272" type="line"/>
      <point x="677" y="0" type="line"/>
      <point x="697" y="0" type="line"/>
      <point x="697" y="348" type="line"/>
      <point x="353" y="348" type="line"/>
    </contour>
    <contour>
      <point x="609" y="344" type="line"/>
      <point x="609" y="339.986"/>
      <point x="610" y="326.94"/>
      <point x="610" y="311.887" type="curve" smooth="yes"/>
      <point x="610" y="169.385"/>
      <point x="517" y="60"/>
      <point x="384" y="60" type="curve" smooth="yes"/>
      <point x="239.4" y="60"/>
      <point x="143" y="177.606"/>
      <point x="143" y="354.014" type="curve" smooth="yes"/>
      <point x="143" y="528.616"/>
      <point x="234" y="640"/>
      <point x="391" y="640" type="curve" smooth="yes"/>
      <point x="463" y="640"/>
      <point x="563" y="618.85"/>
      <point x="634" y="499" type="curve"/>
      <point x="670" y="603" type="line"/>
      <point x="602" y="680"/>
      <point x="501" y="720"/>
      <point x="386" y="720" type="curve" smooth="yes"/>
      <point x="181" y="720"/>
      <point x="53" y="565"/>
      <point x="53" y="356" type="curve" smooth="yes"/>
      <point x="53" y="130.4"/>
      <point x="181" y="-20"/>
      <point x="373" y="-20" type="curve" smooth="yes"/>
      <point x="522" y="-20"/>
      <point x="610" y="90"/>
      <point x="631" y="229" type="curve"/>
    </contour>
  </outline>
</glyph>
<glyph name="G.ss13" format="2">
  <advance width="763"/>
  <anchor x="382" y="-19" name="bottom"/>
  <anchor x="382" y="719" name="top"/>
  <outline>
    <contour>
      <point x="380" y="280" type="line" name="dv05"/>
      <point x="620" y="280" type="line" name="sv02"/>
      <point x="620" y="152.42"/>
      <point x="523" y="60"/>
      <point x="386" y="60" type="curve" smooth="yes" name="dv04"/>
      <point x="235" y="60"/>
      <point x="143" y="171.384"/>
      <point x="143" y="348.997" type="curve" smooth="yes" name="dv07"/>
      <point x="143" y="531.626"/>
      <point x="239" y="640"/>
      <point x="387" y="640" type="curve" smooth="yes"/>
      <point x="493" y="640"/>
      <point x="571" y="583.636"/>
      <point x="600" y="485" type="curve"/>
      <point x="690" y="485" type="line"/>
      <point x="643" y="640"/>
      <point x="536" y="720"/>
      <point x="387" y="720" type="curve" smooth="yes"/>
      <point x="187" y="720"/>
      <point x="53" y="576"/>
      <point x="53" y="352" type="curve" smooth="yes" name="dv08"/>
      <point x="53" y="130"/>
      <point x="185" y="-20"/>
      <point x="387" y="-20" type="curve" smooth="yes" name="dv03"/>
      <point x="580" y="-20"/>
      <point x="710" y="117"/>
      <point x="710" y="321" type="curve" smooth="yes" name="sv03"/>
      <point x="710" y="360" type="line" name="sv01"/>
      <point x="380" y="360" type="line" name="dv06"/>
    </contour>
  </outline>
</glyph>
<glyph name="IJ.liga.ss07" format="2">
  <advance width="640"/>
  <outline>
    <contour>
      <point x="118" y="50" type="line"/>
      <point x="208" y="50" type="line"/>
      <point x="208" y="700" type="line"/>
      <point x="118" y="700" type="line"/>
    </contour>
    <contour>
      <point x="118" y="-134" type="line"/>
      <point x="456.426" y="-134"/>
      <point x="551" y="-77"/>
      <point x="551" y="135" type="curve" smooth="yes"/>
      <point x="551" y="700" type="line"/>
      <point x="461" y="700" type="line"/>
      <point x="461" y="112" type="line" smooth="yes"/>
      <point x="461" y="-16"/>
      <point x="385.438" y="-54"/>
      <point x="118" y="-54" type="curve"/>
    </contour>
  </outline>
</glyph>
<glyph name="a.ss10" format="2">
  <advance width="558"/>
  <anchor x="274" y="520" name="top"/>
  <anchor x="274" y="-20" name="bottom"/>
  <anchor x="470" y="-3" name="ogonek"/>
  <outline>
    <contour>
      <point x="473" y="-10" type="line"/>
      <point x="473" y="352" type="line" smooth="yes"/>
      <point x="473" y="456"/>
      <point x="400" y="520"/>
      <point x="269" y="520" type="curve" smooth="yes"/>
      <point x="176" y="520"/>
      <point x="104" y="488"/>
      <point x="61" y="435" type="curve"/>
      <point x="88" y="350" type="line"/>
      <point x="122" y="410"/>
      <point x="190" y="450"/>
      <point x="267" y="450" type="curve" smooth="yes"/>
      <point x="348" y="450"/>
      <point x="382" y="405"/>
      <point x="382" y="361" type="curve" smooth="yes"/>
      <point x="382" y="313"/>
      <point x="343" y="281"/>
      <point x="245" y="281" type="curve" smooth="yes"/>
      <point x="124" y="281"/>
      <point x="45" y="232"/>
      <point x="45" y="135" type="curve" smooth="yes"/>
      <point x="45" y="38"/>
      <point x="124" y="-20"/>
      <point x="212" y="-20" type="curve" smooth="yes"/>
      <point x="326" y="-20"/>
      <point x="392" y="79"/>
      <point x="395" y="138" type="curve"/>
      <point x="383" y="166" type="line"/>
      <point x="383" y="109"/>
      <point x="323" y="50"/>
      <point x="235" y="50" type="curve" smooth="yes"/>
      <point x="182" y="50"/>
      <point x="135" y="71"/>
      <point x="135" y="133" type="curve" smooth="yes"/>
      <point x="135" y="185"/>
      <point x="169" y="222"/>
      <point x="257" y="222" type="curve" smooth="yes"/>
      <point x="321" y="222"/>
      <point x="362" y="242"/>
      <point x="383" y="273" type="curve"/>
      <point x="383" y="90" type="line"/>
    </contour>
  </outline>
</glyph>
<glyph name="ae.ss02" format="2">
  <advance width="875"/>
  <anchor x="424" y="500" name="top"/>
  <anchor x="424" y="0" name="bottom"/>
  <outline>
    <contour>
      <point x="111.79" y="377" type="line"/>
      <point x="146" y="423.63"/>
      <point x="197.29" y="450"/>
      <point x="251.44" y="450" type="curve" smooth="yes" name="sv01"/>
      <point x="310.34" y="450"/>
      <point x="351.19" y="419.93"/>
      <point x="351.19" y="363.8" type="curve" smooth="yes"/>
      <point x="351.19" y="227.99" type="line"/>
      <point x="325.99" y="274.63"/>
      <point x="270.56" y="312"/>
      <point x="200.14" y="312" type="curve" smooth="yes"/>
      <point x="104.19" y="312"/>
      <point x="32" y="243"/>
      <point x="32" y="146" type="curve" smooth="yes"/>
      <point x="32" y="49"/>
      <point x="104.19" y="-20"/>
      <point x="200.899" y="-20" type="curve" smooth="yes"/>
      <point x="282.574" y="-20"/>
      <point x="354.846" y="29.214"/>
      <point x="380.85" y="104.35" type="curve"/>
      <point x="420.03" y="21.98"/>
      <point x="496.03" y="-20"/>
      <point x="592.63" y="-20" type="curve" smooth="yes" name="dv01"/>
      <point x="683.83" y="-20"/>
      <point x="752.95" y="17"/>
      <point x="792.31" y="70" type="curve"/>
      <point x="741.43" y="123" type="line"/>
      <point x="706.77" y="76.36"/>
      <point x="654.76" y="50"/>
      <point x="593.13" y="50" type="curve" smooth="yes" name="dv02"/>
      <point x="487.19" y="50"/>
      <point x="438.07" y="128.41"/>
      <point x="438.07" y="237" type="curve" name="sv04"/>
      <point x="815.35" y="237" type="line" name="dv03"/>
      <point x="815.35" y="421"/>
      <point x="733.75" y="520"/>
      <point x="587.83" y="520" type="curve" smooth="yes" name="at01"/>
      <point x="514.6" y="520"/>
      <point x="453.79" y="494.95"/>
      <point x="412.22" y="446.26" type="curve"/>
      <point x="384.95" y="490.61"/>
      <point x="334.17" y="520"/>
      <point x="256.19" y="520" type="curve" smooth="yes" name="at01"/>
      <point x="168.79" y="520"/>
      <point x="100.38" y="483"/>
      <point x="61.44" y="430" type="curve"/>
    </contour>
    <contour>
      <point x="441.91" y="296" type="line" name="sv02"/>
      <point x="451.51" y="398.32"/>
      <point x="508.35" y="450"/>
      <point x="587.35" y="450" type="curve" smooth="yes" name="sv01"/>
      <point x="666.35" y="450"/>
      <point x="716.44" y="398.32"/>
      <point x="726.07" y="296" type="curve" name="dv04"/>
    </contour>
    <contour>
      <point x="351.19" y="176.86" type="curve"/>
      <point x="351.13" y="95.95"/>
      <point x="299.85" y="50"/>
      <point x="227.69" y="50" type="curve" smooth="yes"/>
      <point x="163.09" y="50"/>
      <point x="117.49" y="87"/>
      <point x="117.49" y="150" type="curve" smooth="yes"/>
      <point x="117.49" y="212"/>
      <point x="161.19" y="242"/>
      <point x="228.64" y="242" type="curve" smooth="yes"/>
      <point x="287.29" y="242"/>
      <point x="332.36" y="219.37"/>
    </contour>
  </outline>
</glyph>
<glyph name="alpha.ss01" format="2">
  <advance width="629"/>
  <anchor x="271" y="519" name="topgr"/>
  <outline>
    <contour>
      <point x="592" y="70" type="line"/>
      <point x="537" y="70"/>
      <point x="518" y="85"/>
      <point x="518" y="147" type="curve" smooth="yes"/>
      <point x="518" y="500" type="line"/>
      <point x="428" y="500" type="line"/>
      <point x="428" y="153" type="line" smooth="yes"/>
      <point x="428" y="47"/>
      <point x="465" y="0"/>
      <point x="561" y="0" type="curve" smooth="yes"/>
      <point x="592" y="0" type="line"/>
    </contour>
    <contour>
      <point x="257.108" y="-20" type="curve" smooth="yes"/>
      <point x="383.842" y="-20"/>
      <point x="450" y="79"/>
      <point x="450" y="248" type="curve" smooth="yes"/>
      <point x="450" y="426"/>
      <point x="376.491" y="520"/>
      <point x="247.326" y="520" type="curve" smooth="yes"/>
      <point x="108.709" y="520"/>
      <point x="31" y="411"/>
      <point x="31" y="259" type="curve" smooth="yes"/>
      <point x="31" y="99"/>
      <point x="118.16" y="-20"/>
    </contour>
    <contour>
      <point x="277.174" y="50" type="curve" smooth="yes"/>
      <point x="183.042" y="50"/>
      <point x="121" y="138.221"/>
      <point x="121" y="253.509" type="curve" smooth="yes"/>
      <point x="121" y="367.794"/>
      <point x="181.972" y="450"/>
      <point x="273.965" y="450" type="curve" smooth="yes"/>
      <point x="361.679" y="450"/>
      <point x="428" y="374.812"/>
      <point x="428" y="249.499" type="curve" smooth="yes"/>
      <point x="428" y="129.198"/>
      <point x="365.958" y="50"/>
    </contour>
  </outline>
</glyph>
<glyph name="ccedilla.ss10" format="2">
  <advance width="547"/>
  <anchor x="297" y="520" name="top"/>
  <anchor x="277" y="-218" name="bottom"/>
  <outline>
    <contour>
      <point x="474" y="150" type="line"/>
      <point x="432.503" y="85"/>
      <point x="370.945" y="50"/>
      <point x="293.998" y="50" type="curve" smooth="yes"/>
      <point x="193.454" y="50"/>
      <point x="136" y="134"/>
      <point x="136" y="256" type="curve" smooth="yes"/>
      <point x="136" y="375"/>
      <point x="199.589" y="450"/>
      <point x="300.102" y="450" type="curve" smooth="yes"/>
      <point x="369.845" y="450"/>
      <point x="439.588" y="410"/>
      <point x="474" y="350" type="curve"/>
      <point x="501" y="435" type="line"/>
      <point x="457.615" y="488"/>
      <point x="384.258" y="520"/>
      <point x="290.524" y="520" type="curve" smooth="yes"/>
      <point x="139.734" y="520"/>
      <point x="46" y="412"/>
      <point x="46" y="255" type="curve" smooth="yes"/>
      <point x="46" y="91"/>
      <point x="138.715" y="-20"/>
      <point x="290.524" y="-20" type="curve" smooth="yes"/>
      <point x="384.258" y="-20"/>
      <point x="457.615" y="12"/>
      <point x="501" y="65" type="curve"/>
    </contour>
    <contour>
      <point x="181" y="-205" type="line"/>
      <point x="202" y="-211"/>
      <point x="226" y="-218"/>
      <point x="265" y="-218" type="curve" smooth="yes"/>
      <point x="345" y="-218"/>
      <point x="391" y="-189"/>
      <point x="391" y="-137" type="curve" smooth="yes"/>
      <point x="391" y="-90"/>
      <point x="354" y="-64"/>
      <point x="295" y="-64" type="curve"/>
      <point x="339.74" y="14.895" type="line"/>
      <point x="282.74" y="14.895" type="line"/>
      <point x="228" y="-86" type="line"/>
      <point x="243" y="-84"/>
      <point x="254" y="-82"/>
      <point x="267" y="-82" type="curve" smooth="yes"/>
      <point x="302" y="-82"/>
      <point x="323" y="-97"/>
      <point x="323" y="-132" type="curve" smooth="yes"/>
      <point x="323" y="-166"/>
      <point x="304" y="-182"/>
      <point x="262" y="-182" type="curve" smooth="yes"/>
      <point x="239" y="-182"/>
      <point x="217" y="-177"/>
      <point x="200" y="-171" type="curve"/>
    </contour>
  </outline>
</glyph>
<glyph name="d.ss11" format="2">
  <advance width="597"/>
  <anchor x="295" y="-20" name="bottom"/>
  <anchor x="308" y="750" name="top"/>
  <anchor x="572" y="700" name="topright"/>
  <outline>
    <contour>
      <point x="532" y="-10" type="line"/>
      <point x="532" y="700" type="line"/>
      <point x="442" y="700" type="line"/>
      <point x="442" y="104" type="line"/>
    </contour>
    <contour>
      <point x="277" y="50" type="curve" smooth="yes"/>
      <point x="198" y="50"/>
      <point x="140" y="130.201"/>
      <point x="140" y="255.514" type="curve" smooth="yes"/>
      <point x="140" y="376.817"/>
      <point x="197" y="450"/>
      <point x="278" y="450" type="curve" smooth="yes"/>
      <point x="382" y="450"/>
      <point x="442" y="373.81"/>
      <point x="442" y="256.516" type="curve" smooth="yes"/>
      <point x="442" y="133.208"/>
      <point x="376" y="50"/>
    </contour>
    <contour>
      <point x="274" y="-20" type="curve" smooth="yes"/>
      <point x="402" y="-20"/>
      <point x="464" y="84"/>
      <point x="464" y="255" type="curve" smooth="yes"/>
      <point x="464" y="426"/>
      <point x="398" y="520"/>
      <point x="274" y="520" type="curve" smooth="yes"/>
      <point x="135" y="520"/>
      <point x="50" y="419"/>
      <point x="50" y="255" type="curve" smooth="yes"/>
      <point x="50" y="88"/>
      <point x="138" y="-20"/>
    </contour>
  </outline>
</glyph>
<glyph name="dcroat.ss02" format="2">
  <advance width="625"/>
  <outline>
    <contour>
      <point x="196.455" y="631" type="line"/>
      <point x="607.447" y="631" type="line"/>
      <point x="607.447" y="665" type="line"/>
      <point x="196.455" y="665" type="line"/>
    </contour>
    <contour>
      <point x="442" y="120" type="line" name="ab03"/>
      <point x="532" y="120" type="line"/>
      <point x="532" y="750" type="line" name="ab01"/>
      <point x="442" y="750" type="line"/>
    </contour>
    <contour>
      <point x="278" y="-20" type="curve" smooth="yes" name="dv01"/>
      <point x="398" y="-20"/>
      <point x="464" y="78"/>
      <point x="464" y="255" type="curve" smooth="yes"/>
      <point x="464" y="422"/>
      <point x="395" y="520"/>
      <point x="272" y="520" type="curve" smooth="yes" name="at01"/>
      <point x="127" y="520"/>
      <point x="50" y="411"/>
      <point x="50" y="255" type="curve" smooth="yes"/>
      <point x="50" y="99"/>
      <point x="136" y="-20"/>
    </contour>
    <contour>
      <point x="287" y="50" type="curve" smooth="yes" name="dv02"/>
      <point x="197" y="50"/>
      <point x="140" y="130.201"/>
      <point x="140" y="255.514" type="curve" smooth="yes"/>
      <point x="140" y="378.822"/>
      <point x="191" y="450"/>
      <point x="286" y="450" type="curve" smooth="yes" name="sv01"/>
      <point x="377" y="450"/>
      <point x="442" y="369.799"/>
      <point x="442" y="256.516" type="curve" smooth="yes"/>
      <point x="442" y="141.228"/>
      <point x="379" y="50"/>
    </contour>
    <contour>
      <point x="602" y="68" type="line"/>
      <point x="587.747" y="59.954"/>
      <point x="565.111" y="53"/>
      <point x="552.734" y="53" type="curve" smooth="yes" name="dv02"/>
      <point x="534.556" y="53"/>
      <point x="532" y="68"/>
      <point x="532" y="141" type="curve" smooth="yes"/>
      <point x="532" y="321.898" type="line" name="ab01"/>
      <point x="442" y="321.898" type="line"/>
      <point x="442" y="132" type="line" smooth="yes"/>
      <point x="442" y="30"/>
      <point x="469.771" y="-20"/>
      <point x="538.429" y="-20" type="curve" smooth="yes" name="dv01"/>
      <point x="557.714" y="-20"/>
      <point x="577" y="-17"/>
      <point x="620" y="1" type="curve"/>
    </contour>
  </outline>
</glyph>
<glyph name="decyr.ss08" format="2">
  <advance width="741"/>
  <outline>
    <contour>
      <point x="142" y="64" type="line"/>
      <point x="238" y="64" type="line"/>
      <point x="371" y="447" type="line"/>
      <point x="504" y="64" type="line"/>
      <point x="599" y="64" type="line"/>
      <point x="434" y="500" type="line"/>
      <point x="307" y="500" type="line"/>
    </contour>
    <contour>
      <point x="117" y="-140" type="line"/>
      <point x="118" y="-107"/>
      <point x="103" y="0"/>
      <point x="163" y="0" type="curve" smooth="yes"/>
      <point x="573" y="0" type="line" smooth="yes"/>
      <point x="640" y="0"/>
      <point x="625" y="-102"/>
      <point x="625" y="-140" type="curve"/>
      <point x="701" y="-140" type="line"/>
      <point x="701" y="18"/>
      <point x="680" y="71"/>
      <point x="584" y="71" type="curve" smooth="yes"/>
      <point x="157" y="71" type="line" smooth="yes"/>
      <point x="61" y="71"/>
      <point x="40" y="18"/>
      <point x="40" y="-140" type="curve"/>
    </contour>
  </outline>
</glyph>
<glyph name="divide.case" format="2">
  <advance width="547"/>
  <outline>
    <contour>
      <point x="272" y="93" type="curve" smooth="yes"/>
      <point x="305" y="93"/>
      <point x="329" y="119"/>
      <point x="329" y="151" type="curve" smooth="yes"/>
      <point x="329" y="183"/>
      <point x="305" y="207"/>
      <point x="272" y="207" type="curve" smooth="yes"/>
      <point x="238" y="207"/>
      <point x="215" y="183"/>
      <point x="215" y="151" type="curve" smooth="yes"/>
      <point x="215" y="119"/>
      <point x="238" y="93"/>
    </contour>
    <contour>
      <point x="273" y="477" type="curve" smooth="yes"/>
      <point x="306" y="477"/>
      <point x="330" y="503"/>
      <point x="330" y="535" type="curve" smooth="yes"/>
      <point x="330" y="567"/>
      <point x="306" y="591"/>
      <point x="273" y="591" type="curve" smooth="yes"/>
      <point x="239" y="591"/>
      <point x="216" y="567"/>
      <point x="216" y="535" type="curve" smooth="yes"/>
      <point x="216" y="503"/>
      <point x="239" y="477"/>
    </contour>
    <contour>
      <point x="40" y="325" type="line"/>
      <point x="506" y="325" type="line"/>
      <point x="506" y="359" type="line"/>
      <point x="40" y="359" type="line"/>
    </contour>
  </outline>
</glyph>
<glyph name="dollar.ss09" format="2">
  <advance width="590"/>
  <outline>
    <contour>
      <point x="48" y="205.46" type="line"/>
      <point x="72" y="81.469"/>
      <point x="151" y="-0.877"/>
      <point x="300" y="-0.877" type="curve" smooth="yes"/>
      <point x="441" y="-0.877"/>
      <point x="531" y="72.114"/>
      <point x="531" y="190.606" type="curve" smooth="yes"/>
      <point x="531" y="332.121"/>
      <point x="419.602" y="361.055"/>
      <point x="317.755" y="387.508" type="curve" smooth="yes"/>
      <point x="231.991" y="409.783"/>
      <point x="153" y="430.3"/>
      <point x="153" y="514.8" type="curve" smooth="yes"/>
      <point x="153" y="590.634"/>
      <point x="197" y="624.76"/>
      <point x="281" y="624.76" type="curve" smooth="yes"/>
      <point x="366" y="624.76"/>
      <point x="414" y="582.81"/>
      <point x="428" y="494.143" type="curve"/>
      <point x="518" y="494.143" type="line"/>
      <point x="495" y="618.134"/>
      <point x="420" y="700.48"/>
      <point x="279" y="700.48" type="curve" smooth="yes"/>
      <point x="143" y="700.48"/>
      <point x="63" y="622.749"/>
      <point x="63" y="512.789" type="curve" smooth="yes"/>
      <point x="63" y="371.768"/>
      <point x="173.622" y="343.653"/>
      <point x="275.179" y="317.843" type="curve" smooth="yes"/>
      <point x="361.352" y="295.942"/>
      <point x="441" y="275.699"/>
      <point x="441" y="189.544" type="curve" smooth="yes"/>
      <point x="441" y="111.813"/>
      <point x="391" y="74.844"/>
      <point x="302" y="74.844" type="curve" smooth="yes"/>
      <point x="205" y="74.844"/>
      <point x="152" y="118.7"/>
      <point x="138" y="205.461" type="curve"/>
    </contour>
    <contour>
      <point x="265" y="-99" type="line"/>
      <point x="303" y="-99" type="line"/>
      <point x="303" y="782" type="line"/>
      <point x="265" y="782" type="line"/>
    </contour>
  </outline>
</glyph>
<glyph name="eogonek.ss12" format="2">
  <advance width="585"/>
  <anchor x="298" y="520" name="top"/>
  <anchor x="298" y="-20" name="bottom"/>
  <outline>
    <contour>
      <point x="152" y="308" type="line"/>
      <point x="152" y="392"/>
      <point x="211" y="450"/>
      <point x="295" y="450" type="curve" smooth="yes"/>
      <point x="378" y="450"/>
      <point x="432" y="394"/>
      <point x="432" y="308" type="curve"/>
    </contour>
    <contour>
      <point x="528" y="243" type="line"/>
      <point x="528" y="413"/>
      <point x="438" y="520"/>
      <point x="298" y="520" type="curve" smooth="yes"/>
      <point x="152" y="520"/>
      <point x="58" y="410"/>
      <point x="58" y="255" type="curve" smooth="yes"/>
      <point x="58" y="93"/>
      <point x="152" y="-20"/>
      <point x="309.844" y="-20" type="curve" smooth="yes"/>
      <point x="387" y="-20"/>
      <point x="442" y="7"/>
      <point x="499" y="69" type="curve"/>
      <point x="492" y="134" type="line"/>
      <point x="434" y="77"/>
      <point x="378" y="50"/>
      <point x="312" y="50" type="curve" smooth="yes"/>
      <point x="212" y="50"/>
      <point x="149" y="125"/>
      <point x="149" y="243" type="curve"/>
    </contour>
    <contour>
      <point x="410" y="-183" type="line"/>
      <point x="366" y="-171"/>
      <point x="343" y="-143"/>
      <point x="343" y="-103" type="curve" smooth="yes"/>
      <point x="343" y="-62"/>
      <point x="368" y="-22"/>
      <point x="409" y="0" type="curve"/>
      <point x="388" y="3" type="line"/>
      <point x="315" y="-12"/>
      <point x="268" y="-59"/>
      <point x="268" y="-110" type="curve" smooth="yes"/>
      <point x="268" y="-157"/>
      <point x="308" y="-196"/>
      <point x="368" y="-206" type="curve"/>
    </contour>
  </outline>
</glyph>
<glyph name="five.osf" format="2">
  <advance width="615"/>
  <outline>
    <contour>
      <point x="47" y="-48" type="line"/>
      <point x="122" y="-133"/>
      <point x="196" y="-170"/>
      <point x="295" y="-170" type="curve" smooth="yes"/>
      <point x="452" y="-170"/>
      <point x="550" y="-77"/>
      <point x="550" y="75" type="curve" smooth="yes"/>
      <point x="550" y="217"/>
      <point x="465" y="303"/>
      <point x="327" y="303" type="curve" smooth="yes"/>
      <point x="270" y="303"/>
      <point x="220" y="288"/>
      <point x="181" y="269" type="curve"/>
      <point x="208" y="470" type="line"/>
      <point x="518" y="470" type="line"/>
      <point x="518" y="550" type="line"/>
      <point x="136" y="550" type="line"/>
      <point x="73" y="150" type="line"/>
      <point x="159" y="201"/>
      <point x="239" y="228"/>
      <point x="312" y="228" type="curve" smooth="yes"/>
      <point x="412" y="228"/>
      <point x="460" y="178"/>
      <point x="460" y="81" type="curve" smooth="yes"/>
      <point x="460" y="-28"/>
      <point x="399" y="-90"/>
      <point x="292" y="-90" type="curve" smooth="yes"/>
      <point x="208" y="-90"/>
      <point x="161" y="-51"/>
      <point x="105" y="10" type="curve"/>
    </contour>
  </outline>
</glyph>
<glyph name="five.osf.ss10" format="2">
  <advance width="607"/>
  <outline>
    <contour>
      <point x="40" y="-51" type="line"/>
      <point x="108" y="-126"/>
      <point x="197" y="-168"/>
      <point x="296" y="-168" type="curve" smooth="yes"/>
      <point x="456" y="-168"/>
      <point x="557" y="-59"/>
      <point x="557" y="96" type="curve" smooth="yes"/>
      <point x="557" y="238"/>
      <point x="472" y="329"/>
      <point x="334" y="329" type="curve" smooth="yes"/>
      <point x="282" y="329"/>
      <point x="217" y="316"/>
      <point x="184" y="300" type="curve"/>
      <point x="220" y="472" type="line"/>
      <point x="517" y="472" type="line"/>
      <point x="536" y="552" type="line"/>
      <point x="144" y="552" type="line"/>
      <point x="68" y="180" type="line"/>
      <point x="155" y="232"/>
      <point x="236" y="256"/>
      <point x="308" y="256" type="curve" smooth="yes"/>
      <point x="413" y="256"/>
      <point x="467" y="206"/>
      <point x="467" y="99" type="curve" smooth="yes"/>
      <point x="467" y="-21"/>
      <point x="398" y="-88"/>
      <point x="288" y="-88" type="curve" smooth="yes"/>
      <point x="227" y="-88"/>
      <point x="153" y="-67"/>
      <point x="77" y="53" type="curve"/>
    </contour>
  </outline>
</glyph>
<glyph name="germandbls.ss09" format="2">
  <advance width="710"/>
  <outline>
    <contour>
      <point x="184" y="0" type="line"/>
      <point x="184" y="517" type="line" smooth="yes"/>
      <point x="184" y="625"/>
      <point x="222.402" y="681"/>
      <point x="324.114" y="681" type="curve" smooth="yes"/>
      <point x="408.182" y="681"/>
      <point x="458" y="641.328"/>
      <point x="458" y="566.052" type="curve" smooth="yes"/>
      <point x="458" y="462.293"/>
      <point x="375" y="445"/>
      <point x="375" y="364" type="curve" smooth="yes"/>
      <point x="375" y="224"/>
      <point x="552" y="213.626"/>
      <point x="552" y="130.343" type="curve" smooth="yes"/>
      <point x="552" y="66.657"/>
      <point x="515" y="50"/>
      <point x="455" y="50" type="curve" smooth="yes"/>
      <point x="399" y="50"/>
      <point x="370.125" y="66"/>
      <point x="357" y="127" type="curve"/>
      <point x="267" y="127" type="line"/>
      <point x="278.351" y="20"/>
      <point x="351" y="-20"/>
      <point x="455" y="-20" type="curve" smooth="yes"/>
      <point x="569" y="-20"/>
      <point x="642" y="27.358"/>
      <point x="642" y="131.94" type="curve" smooth="yes"/>
      <point x="642" y="256.254"/>
      <point x="465" y="255"/>
      <point x="465" y="368" type="curve" smooth="yes"/>
      <point x="465" y="449"/>
      <point x="548" y="447.987"/>
      <point x="548" y="568.584" type="curve" smooth="yes"/>
      <point x="548" y="691.208"/>
      <point x="450.86" y="751"/>
      <point x="326.113" y="751" type="curve" smooth="yes"/>
      <point x="193.185" y="751"/>
      <point x="94" y="685"/>
      <point x="94" y="535" type="curve" smooth="yes"/>
      <point x="94" y="0" type="line"/>
    </contour>
  </outline>
</glyph>
<glyph name="hryvnia.osf" format="2">
  <advance width="734"/>
  <outline>
    <contour>
      <point x="64" y="205" type="line"/>
      <point x="183.57" y="205" type="line"/>
      <point x="169.72" y="185.64"/>
      <point x="162.44" y="163.34"/>
      <point x="162.44" y="137.63" type="curve" smooth="yes"/>
      <point x="162.44" y="47.25"/>
      <point x="250.24" y="-20"/>
      <point x="366.96" y="-20" type="curve" smooth="yes"/>
      <point x="459.05" y="-20"/>
      <point x="530.79" y="21.94"/>
      <point x="572.54" y="74.38" type="curve"/>
      <point x="515.79" y="129.96" type="line"/>
      <point x="477.98" y="83.18"/>
      <point x="422.35" y="53.4"/>
      <point x="355.61" y="53.4" type="curve" smooth="yes"/>
      <point x="291.08" y="53.4"/>
      <point x="248.81" y="81.78"/>
      <point x="248.81" y="126.97" type="curve" smooth="yes"/>
      <point x="248.81" y="158.44"/>
      <point x="269.3" y="184.55"/>
      <point x="317.66" y="205" type="curve"/>
      <point x="670" y="205" type="line"/>
      <point x="670" y="241" type="line"/>
      <point x="64" y="241" type="line"/>
    </contour>
    <contour>
      <point x="64" y="285" type="line"/>
      <point x="670" y="285" type="line"/>
      <point x="670" y="321" type="line"/>
      <point x="541.39" y="321" type="line"/>
      <point x="555.03" y="342.61"/>
      <point x="561.84" y="366.7"/>
      <point x="561.84" y="392.86" type="curve" smooth="yes"/>
      <point x="561.84" y="479.03"/>
      <point x="489.03" y="546.29"/>
      <point x="375.53" y="546.29" type="curve" smooth="yes"/>
      <point x="285.58" y="546.29"/>
      <point x="213.84" y="504.34"/>
      <point x="172.08" y="451.91" type="curve"/>
      <point x="228.83" y="396.33" type="line"/>
      <point x="266.77" y="443.11"/>
      <point x="322.58" y="472.88"/>
      <point x="377.26" y="472.88" type="curve" smooth="yes"/>
      <point x="433.06" y="472.88"/>
      <point x="475.47" y="443.46"/>
      <point x="475.47" y="396.16" type="curve" smooth="yes"/>
      <point x="475.47" y="367.92"/>
      <point x="460.08" y="342.67"/>
      <point x="421.74" y="321" type="curve"/>
      <point x="64" y="321" type="line"/>
    </contour>
  </outline>
</glyph>
<glyph name="hryvnia.ss12" format="2">
  <advance width="710"/>
  <outline>
    <contour>
      <point x="42" y="275" type="line"/>
      <point x="153.66" y="275" type="line"/>
      <point x="135.18" y="248.74"/>
      <point x="124" y="215.22"/>
      <point x="124" y="171" type="curve" smooth="yes"/>
      <point x="124" y="50"/>
      <point x="217" y="-20"/>
      <point x="343" y="-20" type="curve" smooth="yes"/>
      <point x="449" y="-20"/>
      <point x="515" y="21"/>
      <point x="588" y="104" type="curve"/>
      <point x="579" y="169" type="line"/>
      <point x="504" y="93"/>
      <point x="445" y="60"/>
      <point x="356" y="60" type="curve" smooth="yes"/>
      <point x="275" y="60"/>
      <point x="214" y="79"/>
      <point x="214" y="169" type="curve" smooth="yes"/>
      <point x="214" y="221.53"/>
      <point x="239.45" y="252.74"/>
      <point x="276.99" y="275" type="curve"/>
      <point x="669" y="275" type="line"/>
      <point x="669" y="309" type="line"/>
      <point x="42" y="309" type="line"/>
    </contour>
    <contour>
      <point x="41" y="407" type="line"/>
      <point x="668" y="407" type="line"/>
      <point x="668" y="441" type="line"/>
      <point x="567.07" y="441" type="line"/>
      <point x="577.2" y="463.7"/>
      <point x="583" y="490.92"/>
      <point x="583" y="524" type="curve" smooth="yes"/>
      <point x="583" y="645"/>
      <point x="496" y="720"/>
      <point x="371" y="720" type="curve" smooth="yes"/>
      <point x="277" y="720"/>
      <point x="213" y="678"/>
      <point x="142" y="595" type="curve"/>
      <point x="151" y="530" type="line"/>
      <point x="224" y="606"/>
      <point x="281" y="640"/>
      <point x="362" y="640" type="curve" smooth="yes"/>
      <point x="442" y="640"/>
      <point x="493" y="598"/>
      <point x="493" y="524" type="curve" smooth="yes"/>
      <point x="493" y="487.67"/>
      <point x="480.58" y="461.34"/>
      <point x="460.29" y="441" type="curve"/>
      <point x="41" y="441" type="line"/>
    </contour>
  </outline>
</glyph>
<glyph name="lira.ss12" format="2">
  <advance width="620"/>
  <outline>
    <contour>
      <point x="41" y="362" type="line"/>
      <point x="465" y="362" type="line"/>
      <point x="465" y="402" type="line"/>
      <point x="41" y="402" type="line"/>
    </contour>
    <contour>
      <point x="41" y="226" type="line"/>
      <point x="465" y="226" type="line"/>
      <point x="465" y="266" type="line"/>
      <point x="41" y="266" type="line"/>
    </contour>
    <contour>
      <point x="47" y="0" type="line"/>
      <point x="577" y="0" type="line"/>
      <point x="577" y="80" type="line"/>
      <point x="157" y="80" type="line"/>
      <point x="212" y="101"/>
      <point x="219" y="159"/>
      <point x="219" y="229" type="curve" smooth="yes"/>
      <point x="219" y="490" type="line" smooth="yes"/>
      <point x="219" y="584"/>
      <point x="261" y="639"/>
      <point x="358" y="639" type="curve" smooth="yes"/>
      <point x="426" y="639"/>
      <point x="484" y="612"/>
      <point x="562" y="530" type="curve"/>
      <point x="571" y="607" type="line"/>
      <point x="503" y="687"/>
      <point x="433" y="720"/>
      <point x="345" y="720" type="curve" smooth="yes"/>
      <point x="200" y="720"/>
      <point x="129" y="629"/>
      <point x="129" y="459" type="curve" smooth="yes"/>
      <point x="129" y="236" type="line" smooth="yes"/>
      <point x="129" y="159"/>
      <point x="93" y="84"/>
      <point x="47" y="53" type="curve"/>
    </contour>
  </outline>
</glyph>
<glyph name="nine.osf.ss09" format="2">
  <advance width="650"/>
  <outline>
    <contour>
      <point x="153" y="325" type="curve" smooth="yes"/>
      <point x="153" y="417"/>
      <point x="202" y="489"/>
      <point x="316" y="489" type="curve" smooth="yes"/>
      <point x="433" y="489"/>
      <point x="496" y="414"/>
      <point x="496" y="326" type="curve" smooth="yes"/>
      <point x="496" y="236"/>
      <point x="430" y="168"/>
      <point x="316" y="168" type="curve" smooth="yes"/>
      <point x="215" y="168"/>
      <point x="153" y="222"/>
    </contour>
    <contour>
      <point x="78" y="47" type="line"/>
      <point x="102" y="-84"/>
      <point x="173" y="-171"/>
      <point x="316" y="-171" type="curve" smooth="yes"/>
      <point x="500" y="-171"/>
      <point x="600" y="-26"/>
      <point x="600" y="208" type="curve" smooth="yes"/>
      <point x="600" y="443"/>
      <point x="499" y="569"/>
      <point x="314" y="569" type="curve" smooth="yes"/>
      <point x="142" y="569"/>
      <point x="63" y="459"/>
      <point x="63" y="328" type="curve" smooth="yes"/>
      <point x="63" y="182"/>
      <point x="162" y="96"/>
      <point x="307" y="96" type="curve" smooth="yes"/>
      <point x="421" y="96"/>
      <point x="494" y="149"/>
      <point x="526" y="208" type="curve"/>
      <point x="526" y="21"/>
      <point x="458" y="-90"/>
      <point x="317" y="-90" type="curve" smooth="yes"/>
      <point x="233" y="-90"/>
      <point x="185" y="-51"/>
      <point x="168" y="47" type="curve"/>
    </contour>
  </outline>
</glyph>
<glyph name="schwa.ss09" format="2">
  <advance width="566"/>
  <anchor x="283" y="-20" name="bottom"/>
  <anchor x="283" y="520" name="top"/>
  <outline>
    <contour>
      <point x="52" y="289" type="line"/>
      <point x="51" y="281"/>
      <point x="50" y="268"/>
      <point x="50" y="250" type="curve" smooth="yes"/>
      <point x="50" y="80"/>
      <point x="135" y="-20"/>
      <point x="280" y="-20" type="curve" smooth="yes"/>
      <point x="428" y="-20"/>
      <point x="516" y="87"/>
      <point x="516" y="249" type="curve" smooth="yes"/>
      <point x="516" y="398"/>
      <point x="441" y="520"/>
      <point x="280" y="520" type="curve" smooth="yes"/>
      <point x="149" y="520"/>
      <point x="78" y="441"/>
      <point x="54" y="351" type="curve"/>
      <point x="144" y="351" type="line"/>
      <point x="160.236" y="400.5"/>
      <point x="204.886" y="450"/>
      <point x="282.007" y="450" type="curve" smooth="yes"/>
      <point x="363.188" y="450"/>
      <point x="419" y="393.65"/>
      <point x="428" y="289" type="curve"/>
    </contour>
    <contour>
      <point x="426" y="224" type="line"/>
      <point x="419.892" y="112"/>
      <point x="368.25" y="50"/>
      <point x="277.361" y="50" type="curve" smooth="yes"/>
      <point x="189.569" y="50"/>
      <point x="142.059" y="106"/>
      <point x="138" y="224" type="curve"/>
    </contour>
  </outline>
</glyph>
<glyph name="sigmafinal.ss10" format="2">
  <advance width="567"/>
  <anchor x="288" y="519" name="topgr"/>
  <outline>
    <contour>
      <point x="495" y="-200" type="line"/>
      <point x="515" y="-172"/>
      <point x="529" y="-138"/>
      <point x="529" y="-101" type="curve" smooth="yes"/>
      <point x="529" y="-13"/>
      <point x="449" y="50"/>
      <point x="332" y="50" type="curve" smooth="yes"/>
      <point x="196" y="50"/>
      <point x="140" y="135"/>
      <point x="140" y="251" type="curve" smooth="yes"/>
      <point x="140" y="374"/>
      <point x="203" y="450"/>
      <point x="307" y="450" type="curve" smooth="yes"/>
      <point x="334" y="450"/>
      <point x="406" y="445"/>
      <point x="471" y="350" type="curve"/>
      <point x="498" y="435" type="line"/>
      <point x="453" y="488"/>
      <point x="378" y="520"/>
      <point x="295" y="520" type="curve" smooth="yes"/>
      <point x="141" y="520"/>
      <point x="50" y="411"/>
      <point x="50" y="249" type="curve" smooth="yes"/>
      <point x="50" y="118"/>
      <point x="110" y="-20"/>
      <point x="310" y="-20" type="curve" smooth="yes"/>
      <point x="403" y="-20"/>
      <point x="439" y="-50"/>
      <point x="439" y="-108" type="curve" smooth="yes"/>
      <point x="439" y="-142"/>
      <point x="426" y="-168"/>
      <point x="403" y="-200" type="curve"/>
    </contour>
  </outline>
</glyph>
<glyph name="sterling.ss09" format="2">
  <advance width="660"/>
  <outline>
    <contour>
      <point x="453" y="310" type="line"/>
      <point x="463" y="360" type="line"/>
      <point x="54" y="360" type="line"/>
      <point x="44" y="310" type="line"/>
    </contour>
    <contour>
      <point x="72" y="-39" type="line"/>
      <point x="164" y="41"/>
      <point x="192" y="47"/>
      <point x="213" y="47" type="curve" smooth="yes"/>
      <point x="286" y="47"/>
      <point x="299" y="-26"/>
      <point x="421" y="-26" type="curve" smooth="yes"/>
      <point x="540" y="-26"/>
      <point x="593" y="44"/>
      <point x="610" y="151" type="curve"/>
      <point x="520" y="151" type="line"/>
      <point x="510" y="75"/>
      <point x="462" y="54"/>
      <point x="419" y="54" type="curve" smooth="yes"/>
      <point x="338" y="54"/>
      <point x="304" y="128"/>
      <point x="205" y="98" type="curve"/>
      <point x="244" y="128.055"/>
      <point x="272" y="169.131"/>
      <point x="272" y="225.235" type="curve" smooth="yes"/>
      <point x="272" y="333.434"/>
      <point x="169.5" y="394.547"/>
      <point x="169.5" y="505.752" type="curve" smooth="yes"/>
      <point x="169.5" y="590.909"/>
      <point x="228.595" y="640"/>
      <point x="324.748" y="640" type="curve" smooth="yes"/>
      <point x="410.886" y="640"/>
      <point x="463.971" y="600.715"/>
      <point x="482" y="502" type="curve"/>
      <point x="572" y="502" type="line"/>
      <point x="546.026" y="633"/>
      <point x="465.109" y="720"/>
      <point x="314.262" y="720" type="curve" smooth="yes"/>
      <point x="170.408" y="720"/>
      <point x="79.5" y="640"/>
      <point x="79.5" y="524" type="curve" smooth="yes"/>
      <point x="79.5" y="400"/>
      <point x="182" y="318"/>
      <point x="182" y="217" type="curve" smooth="yes"/>
      <point x="182" y="139"/>
      <point x="121" y="80"/>
      <point x="72" y="41" type="curve"/>
    </contour>
  </outline>
</glyph>
<glyph name="tsecyr.loclBGR" format="2">
  <advance width="660"/>
  <outline>
    <contour>
      <point x="417" y="203" type="line"/>
      <point x="405" y="263" type="line"/>
      <point x="405" y="125.293"/>
      <point x="355" y="50"/>
      <point x="267" y="50" type="curve" smooth="yes"/>
      <point x="198" y="50"/>
      <point x="164" y="96.792"/>
      <point x="164" y="184.403" type="curve" smooth="yes"/>
      <point x="164" y="500" type="line"/>
      <point x="74" y="500" type="line"/>
      <point x="74" y="196" type="line" smooth="yes"/>
      <point x="74" y="51"/>
      <point x="134" y="-20"/>
      <point x="243" y="-20" type="curve" smooth="yes"/>
      <point x="337" y="-20"/>
      <point x="390" y="32"/>
      <point x="417" y="130" type="curve"/>
    </contour>
    <contour>
      <point x="405" y="0" type="line" name="ab01"/>
      <point x="495" y="0" type="line"/>
      <point x="495" y="500" type="line"/>
      <point x="405" y="500" type="line" name="av01"/>
    </contour>
    <contour>
      <point x="479" y="0" type="line"/>
      <point x="546" y="0"/>
      <point x="532" y="-72"/>
      <point x="532" y="-140" type="curve"/>
      <point x="608" y="-140" type="line"/>
      <point x="608" y="35"/>
      <point x="587" y="68"/>
      <point x="487" y="68" type="curve"/>
    </contour>
  </outline>
</glyph>
<glyph name="tshecyr.ss11" format="2">
  <advance width="649"/>
  <outline>
    <contour>
      <point x="113" y="0" type="line"/>
      <point x="203" y="0" type="line"/>
      <point x="203" y="700" type="line"/>
      <point x="113" y="700" type="line"/>
    </contour>
    <contour>
      <point x="203" y="197" type="line" name="iv01"/>
      <point x="203" y="336"/>
      <point x="259" y="428"/>
      <point x="369" y="428" type="curve" smooth="yes" name="sv01"/>
      <point x="444" y="428"/>
      <point x="470" y="386"/>
      <point x="470" y="273" type="curve" smooth="yes"/>
      <point x="470" y="0" type="line" name="ab01"/>
      <point x="560" y="0" type="line"/>
      <point x="560" y="284" type="line" smooth="yes"/>
      <point x="560" y="428"/>
      <point x="505" y="500"/>
      <point x="391" y="500" type="curve" smooth="yes" name="at01"/>
      <point x="294" y="500"/>
      <point x="218" y="431"/>
      <point x="195" y="322" type="curve"/>
      <point x="196" y="254" type="line"/>
    </contour>
    <contour>
      <point x="9" y="580" type="line"/>
      <point x="414" y="580" type="line"/>
      <point x="414" y="616" type="line"/>
      <point x="9" y="616" type="line"/>
    </contour>
  </outline>
</glyph>
<glyph name="vecyr.loclBGR" format="2">
  <advance width="527"/>
  <anchor x="274" y="724" name="top"/>
  <anchor x="263" y="-20" name="bottom"/>
  <outline>
    <contour>
      <point x="401.47" y="392.97" type="curve"/>
      <point x="442.1" y="425.84"/>
      <point x="466" y="477.25"/>
      <point x="466" y="543.45" type="curve" smooth="yes"/>
      <point x="466" y="667.6"/>
      <point x="399" y="746.6"/>
      <point x="276.43" y="746.6" type="curve" smooth="yes"/>
      <point x="148.47" y="746.6"/>
      <point x="80.49" y="688.15"/>
      <point x="80.49" y="578.12" type="curve" smooth="yes"/>
      <point x="80.49" y="148.47" type="line" smooth="yes"/>
      <point x="80.49" y="38.44"/>
      <point x="150.69" y="-20"/>
      <point x="282.85" y="-20" type="curve" smooth="yes"/>
      <point x="414.2" y="-20"/>
      <point x="486" y="68.39"/>
      <point x="486" y="207.31" type="curve" smooth="yes"/>
      <point x="486" y="294.27"/>
      <point x="455.64" y="358.42"/>
    </contour>
    <contour>
      <point x="298.27" y="352" type="line" smooth="yes"/>
      <point x="367" y="352.215"/>
      <point x="396" y="294.72"/>
      <point x="396" y="201" type="curve" smooth="yes"/>
      <point x="396" y="102.77"/>
      <point x="353.03" y="50"/>
      <point x="273.04" y="50" type="curve" smooth="yes"/>
      <point x="205.5" y="50"/>
      <point x="170.58" y="81.18"/>
      <point x="170.49" y="141.56" type="curve" smooth="yes"/>
      <point x="170.2" y="351.6" type="line"/>
    </contour>
    <contour>
      <point x="170.49" y="585.03" type="line" smooth="yes"/>
      <point x="170.58" y="645.41"/>
      <point x="206.59" y="676.6"/>
      <point x="276.24" y="676.6" type="curve" smooth="yes"/>
      <point x="336.09" y="676.6"/>
      <point x="376" y="625.6"/>
      <point x="376" y="549.1" type="curve" smooth="yes"/>
      <point x="376" y="466.779"/>
      <point x="347.237" y="421.957"/>
      <point x="294.42" y="421.97" type="curve" smooth="yes"/>
      <point x="170.27" y="422" type="line"/>
    </contour>
  </outline>
</glyph>
<glyph name="yucyr.loclBGR.ss11" format="2">
  <advance width="837"/>
  <anchor x="418" y="-20" name="bottom"/>
  <anchor x="418" y="520" name="top"/>
  <outline>
    <contour>
      <point x="85" y="0" type="line" name="ab01"/>
      <point x="175" y="0" type="line"/>
      <point x="175" y="700" type="line"/>
      <point x="85" y="700" type="line" name="av01"/>
    </contour>
    <contour>
      <point x="151" y="220" type="line"/>
      <point x="327" y="220" type="line"/>
      <point x="327" y="290" type="line"/>
      <point x="151" y="290" type="line"/>
    </contour>
    <contour>
      <point x="528" y="-20" type="curve" smooth="yes" name="dv01"/>
      <point x="690" y="-20"/>
      <point x="773" y="79"/>
      <point x="773" y="255" type="curve" smooth="yes"/>
      <point x="773" y="421"/>
      <point x="690" y="520"/>
      <point x="529" y="520" type="curve" smooth="yes" name="at01"/>
      <point x="379" y="520"/>
      <point x="295" y="421"/>
      <point x="295" y="255" type="curve" smooth="yes"/>
      <point x="295" y="79"/>
      <point x="379" y="-20"/>
    </contour>
    <contour>
      <point x="530" y="50" type="curve" smooth="yes" name="dv02"/>
      <point x="433" y="50"/>
      <point x="385" y="118.342"/>
      <point x="385" y="255.025" type="curve" smooth="yes"/>
      <point x="385" y="387.688"/>
      <point x="432" y="450"/>
      <point x="532" y="450" type="curve" smooth="yes" name="sv01"/>
      <point x="633" y="450"/>
      <point x="683" y="383.668"/>
      <point x="683" y="253.015" type="curve" smooth="yes"/>
      <point x="683" y="115.327"/>
      <point x="634" y="50"/>
    </contour>
  </outline>
</glyph>
